Coordinates
version=1
nRows=65
nColumns=12
inDegrees=yes

Units are S.I. units (second, meters, Newtons, ...)
Angles are in degrees

endheader
time	SC_y	SC_z	SC_x	AC_y	AC_z	AC_x	GH_y	GH_z	GH_yy	EL_x	PS_y
       0.0              -19.68          6.899          15.44          43.25         -6.542          16.35         -21.98          16.59          148.2          23.64          71.26
  0.004412              -19.68          6.902          15.44          43.25          -6.54          16.35         -21.99          16.59          148.2          23.64          71.26
  0.008823              -19.68          6.906          15.44          43.26         -6.539          16.34         -21.99          16.59          148.2          23.64          71.27
   0.01323              -19.68           6.91          15.44          43.26         -6.537          16.34         -21.99           16.6          148.2          23.65          71.27
   0.01765              -19.68          6.914          15.44          43.26         -6.535          16.33          -22.0           16.6          148.2          23.66          71.28
   0.02206              -19.68          6.918          15.44          43.26         -6.533          16.33         -22.01          16.61          148.2          23.66          71.28
   0.02647              -19.68          6.922          15.44          43.26         -6.531          16.33         -22.01          16.61          148.2          23.67          71.29
   0.03088              -19.68          6.927          15.44          43.26         -6.528          16.32         -22.02          16.62          148.2          23.67           71.3
   0.03529              -19.68          6.932          15.44          43.26         -6.526          16.31         -22.03          16.62          148.2          23.68          71.31
    0.0397              -19.67          6.938          15.43          43.26         -6.523          16.31         -22.03          16.63          148.1          23.69          71.31
   0.04412              -19.67          6.944          15.43          43.26          -6.52           16.3         -22.04          16.63          148.1           23.7          71.32
   0.04853              -19.67          6.951          15.43          43.26         -6.517          16.29         -22.05          16.64          148.1          23.71          71.33
   0.05294              -19.67          6.958          15.43          43.26         -6.513          16.29         -22.06          16.65          148.1          23.72          71.34
   0.05735              -19.67          6.965          15.43          43.26         -6.509          16.28         -22.07          16.65          148.1          23.73          71.35
   0.06176              -19.67          6.973          15.43          43.26         -6.505          16.27         -22.08          16.66          148.1          23.74          71.37
   0.06617              -19.66          6.982          15.43          43.26         -6.501          16.26         -22.09          16.67          148.1          23.75          71.38
   0.07059              -19.66          6.992          15.43          43.26         -6.496          16.25         -22.11          16.68          148.1          23.76          71.39
     0.075              -19.66          7.002          15.43          43.27         -6.491          16.24         -22.12          16.69          148.1          23.78          71.41
   0.07941              -19.66          7.014          15.42          43.27         -6.485          16.23         -22.14           16.7          148.1           23.8          71.43
   0.08382              -19.65          7.026          15.42          43.27         -6.479          16.21         -22.15          16.71          148.1          23.81          71.45
   0.08823              -19.65           7.04          15.42          43.27         -6.473           16.2         -22.17          16.73          148.1          23.83          71.47
   0.09264              -19.65          7.055          15.42          43.27         -6.465          16.18         -22.19          16.74          148.1          23.85          71.49
   0.09706              -19.64          7.072          15.42          43.27         -6.457          16.16         -22.21          16.76          148.1          23.88          71.51
    0.1015              -19.64           7.09          15.41          43.28         -6.448          16.14         -22.24          16.78          148.1           23.9          71.54
    0.1059              -19.64          7.111          15.41          43.28         -6.438          16.12         -22.27           16.8          148.1          23.93          71.57
    0.1103              -19.63          7.134          15.41          43.28         -6.426          16.09          -22.3          16.82          148.1          23.96          71.61
    0.1147              -19.62          7.159           15.4          43.28         -6.413          16.06         -22.33          16.84          148.1           24.0          71.65
    0.1191              -19.62          7.188           15.4          43.29         -6.399          16.03         -22.37          16.87          148.1          24.04          71.69
    0.1235              -19.61          7.221           15.4          43.29         -6.383           16.0         -22.42          16.91          148.0          24.09          71.74
    0.1279               -19.6          7.258          15.39          43.29         -6.365          15.96         -22.47          16.94          148.0          24.14           71.8
    0.1323              -19.59            7.3          15.38           43.3         -6.344          15.91         -22.52          16.98          148.0           24.2          71.86
    0.1368              -19.58          7.349          15.38           43.3          -6.32          15.86         -22.59          17.03          148.0          24.26          71.93
    0.1412              -19.57          7.405          15.37          43.31         -6.292          15.79         -22.66          17.09          148.0          24.34          72.02
    0.1456              -19.56           7.47          15.36          43.32          -6.26          15.72         -22.75          17.15          147.9          24.43          72.11
      0.15              -19.54          7.547          15.35          43.33         -6.222          15.64         -22.86          17.23          147.9          24.54          72.23
    0.1544              -19.52          7.636          15.34          43.34         -6.178          15.54         -22.98          17.32          147.9          24.67          72.36
    0.1588              -19.49          7.743          15.32          43.35         -6.125          15.42         -23.12          17.42          147.8          24.82          72.52
    0.1632              -19.47          7.871          15.31          43.36         -6.062          15.28         -23.29          17.55          147.8          24.99          72.72
    0.1676              -19.43          8.026          15.29          43.38         -5.985          15.11          -23.5           17.7          147.7          25.21          72.95
    0.1721              -19.39          8.216          15.26           43.4         -5.892           14.9         -23.76          17.89          147.7          25.48          73.24
    0.1765              -19.34          8.449          15.23          43.43         -5.776          14.65         -24.08          18.12          147.6           25.8          73.59
    0.1809              -19.27          8.741          15.19          43.46         -5.632          14.33         -24.47          18.41          147.5          26.21          74.02
    0.1853              -19.19          9.108          15.14           43.5         -5.451          13.92         -24.96          18.77          147.3          26.72          74.58
    0.1897              -19.08          9.574          15.07          43.55         -5.221          13.41          -25.6          19.23          147.2          27.38          75.28
    0.1941              -18.95          10.17          14.99          43.62         -4.926          12.75          -26.4          19.82          146.9          28.21          76.18
    0.1985              -18.78          10.94          14.88          43.71         -4.547          11.91         -27.44          20.58          146.6          29.28          77.33
    0.2029              -18.56          11.92          14.75          43.81         -4.063          10.83         -28.76          21.55          146.3          30.65           78.8
    0.2073              -18.28          13.15          14.58          43.95         -3.455          9.478         -30.42          22.77          145.8          32.37          80.65
    0.2118              -17.95          14.65          14.37          44.12         -2.714          7.828         -32.45          24.25          145.2          34.47          82.91
    0.2162              -17.56          16.39          14.14          44.31         -1.856          5.916          -34.8          25.97          144.6           36.9          85.52
    0.2206              -17.14          18.27          13.88          44.52        -0.9256          3.845         -37.34          27.83          143.9          39.53          88.35
     0.225              -16.72          20.15          13.62          44.73       0.004319          1.774         -39.89          29.69          143.2          42.16          91.18
    0.2294              -16.33          21.89          13.38          44.93         0.8632         -0.138         -42.23          31.41          142.5           44.6           93.8
    0.2338              -15.99          23.39          13.17           45.1          1.604         -1.788         -44.26          32.89          141.9          46.69          96.05
    0.2382              -15.72          24.62           13.0          45.23          2.212         -3.142         -45.92          34.11          141.5          48.41           97.9
    0.2426               -15.5           25.6          12.87          45.34          2.696         -4.218         -47.25          35.08          141.1          49.78          99.38
    0.2471              -15.32          26.37          12.76          45.43          3.074         -5.061         -48.28          35.84          140.8          50.85          100.5
    0.2515              -15.19          26.96          12.68           45.5          3.369         -5.718         -49.09          36.43          140.6          51.69          101.4
    0.2559              -15.09          27.43          12.62          45.55            3.6         -6.231         -49.72          36.89          140.4          52.34          102.1
    0.2603               -15.0           27.8          12.57          45.59          3.781         -6.635         -50.22          37.25          140.3          52.86          102.7
    0.2647              -14.94          28.09          12.53          45.62          3.925         -6.956         -50.61          37.54          140.2          53.26          103.1
    0.2691              -14.89          28.32          12.49          45.65           4.04         -7.213         -50.92          37.77          140.1          53.59          103.5
    0.2735              -14.84          28.51          12.47          45.67          4.134         -7.421         -51.18          37.96          140.0          53.85          103.8
    0.2779              -14.81          28.67          12.45          45.69           4.21         -7.591         -51.39          38.11          139.9          54.07          104.0
    0.2823              -14.78           28.8          12.43           45.7          4.274         -7.732         -51.56          38.24          139.9          54.25          104.2
